<?xml version="1.0" encoding="iso-8859-1"?>
<!-- Uploaded to: SVG Repo, www.svgrepo.com, Generator: SVG Repo Mixer Tools -->
<!DOCTYPE svg PUBLIC "-//W3C//DTD SVG 1.1//EN" "http://www.w3.org/Graphics/SVG/1.1/DTD/svg11.dtd">
<svg fill="#000000" height="800px" width="800px" version="1.1" id="Capa_1" xmlns="http://www.w3.org/2000/svg" xmlns:xlink="http://www.w3.org/1999/xlink" 
	 viewBox="0 0 436.694 436.694" xml:space="preserve">
<path d="M62.149,236.976c-11.562,0-22.41-4.653-30.548-13.101c-6.887-7.15-14.925-20.287-14.103-42.27
	c1.011-26.945,22.523-40.339,42.681-41.688c0.541-0.036,3.385-0.129,4.728,0.059c19.928,1.642,40.895,15.036,41.891,41.629
	c0.823,21.982-7.214,35.12-14.102,42.27C84.559,232.323,73.71,236.976,62.149,236.976z M62.149,159.837
	c-11.09,0.506-24.071,6.681-24.665,22.518c-0.443,11.839,2.503,21.399,8.521,27.645c4.333,4.499,10.066,6.976,16.144,6.976
	c6.077,0,11.811-2.478,16.144-6.976c6.017-6.246,8.963-15.806,8.52-27.646C86.22,166.517,73.239,160.344,62.149,159.837z
	 M116.119,351.457c5.43-1.006,9.017-6.224,8.012-11.654l-8.633-46.609c-5.041-27.216-30.427-39.397-53.35-39.397
	c-22.922,0-48.308,12.182-53.349,39.397l-8.632,46.609c-0.541,2.921,0.245,5.932,2.145,8.216s4.717,3.605,7.688,3.605l59.214-0.001
	c5.523,0,10-4.477,10-10s-4.478-10-10-10l-47.192,0.001l6.443-34.788c2.948-15.916,19.042-23.04,33.684-23.04
	s30.736,7.124,33.684,23.04l8.632,46.609c0.892,4.815,5.095,8.181,9.822,8.181C114.89,351.625,115.504,351.57,116.119,351.457z
	 M218.345,181.093c-11.562,0-22.41-4.653-30.548-13.101c-6.887-7.149-14.924-20.286-14.102-42.268
	c0.965-25.858,20.815-39.237,40.233-41.467c1.359-0.156,7.292-0.458,11.088,0.309c18.671,2.976,37.05,16.301,37.978,41.159
	c0.823,21.981-7.214,35.118-14.102,42.267C240.755,176.44,229.907,181.093,218.345,181.093z M218.345,103.954
	c-11.091,0.507-24.072,6.681-24.663,22.517c-0.443,11.84,2.502,21.4,8.519,27.646c4.333,4.499,10.067,6.976,16.144,6.976
	s11.811-2.478,16.144-6.976c6.017-6.246,8.962-15.806,8.519-27.645C242.417,110.635,229.436,104.461,218.345,103.954z
	 M272.317,295.573c5.431-1.006,9.018-6.224,8.011-11.654l-8.634-46.609c-5.041-27.215-30.426-39.397-53.347-39.397
	S170.04,210.095,165,237.31l-8.636,46.609c-0.542,2.921,0.244,5.932,2.144,8.216c1.9,2.284,4.717,3.605,7.688,3.605l59.216-0.001
	c5.523,0,10-4.477,10-10s-4.478-10-10-10l-47.193,0.001l6.446-34.788c2.948-15.916,19.041-23.04,33.682-23.04
	s30.734,7.124,33.682,23.04l8.634,46.609c0.892,4.815,5.095,8.181,9.821,8.181C271.089,295.743,271.702,295.687,272.317,295.573z
	 M374.541,125.211c-11.561,0-22.41-4.653-30.548-13.101c-6.887-7.15-14.924-20.287-14.102-42.269
	c0.982-26.233,21.399-39.622,41.082-41.556c1.076-0.106,7.382-0.005,9.12,0.233c19.046,2.614,38.147,15.969,39.098,41.322
	c0.822,21.983-7.215,35.12-14.103,42.27C396.951,120.559,386.103,125.211,374.541,125.211z M374.543,48.072
	c-11.091,0.507-24.073,6.681-24.665,22.517c-0.443,11.84,2.503,21.4,8.52,27.646c4.333,4.498,10.066,6.976,16.144,6.976
	c6.078,0,11.811-2.478,16.145-6.976c6.017-6.246,8.963-15.806,8.52-27.646C398.612,54.753,385.632,48.579,374.543,48.072z
	 M428.513,239.692c5.43-1.006,9.017-6.224,8.012-11.654l-8.633-46.61c-5.042-27.216-30.428-39.397-53.351-39.397
	c-22.921,0-48.307,12.183-53.347,39.397l-8.634,46.609c-0.542,2.921,0.245,5.932,2.145,8.216s4.717,3.605,7.688,3.605l59.214-0.001
	c5.523,0,10-4.477,10-10s-4.478-10-10-10l-47.192,0.001l6.445-34.788c2.948-15.916,19.041-23.04,33.682-23.04
	c14.642,0,30.736,7.124,33.685,23.04l8.632,46.609c0.892,4.815,5.095,8.181,9.822,8.181
	C427.284,239.861,427.898,239.806,428.513,239.692z M114.298,408.449c2.81,0,5.489-1.182,7.384-3.256l48.924-53.568l99.89-0.001
	c2.78,0,5.435-1.158,7.327-3.195l48.934-52.687l99.935-0.001c5.523,0,10-4.477,10-10s-4.477-10-10-10l-104.299,0.001
	c-2.968,0-5.634,1.293-7.465,3.347l-48.792,52.535l-99.939,0.001c-2.81,0-5.489,1.182-7.384,3.256l-48.925,53.568L10,388.45
	c-5.523,0-10,4.477-10,10s4.477,10,10,10L114.298,408.449z"/>
</svg>